<?xml version="1.0" standalone="no"?>
<!DOCTYPE svg PUBLIC "-//W3C//DTD SVG 20010904//EN"
 "http://www.w3.org/TR/2001/REC-SVG-20010904/DTD/svg10.dtd">
<svg version="1.0" xmlns="http://www.w3.org/2000/svg"
 width="210.000000pt" height="210.000000pt" viewBox="0 0 210.000000 210.000000"
 preserveAspectRatio="xMidYMid meet">
<metadata>
Created by potrace 1.11, written by Peter Selinger 2001-2013
</metadata>
<g transform="translate(0.000000,210.000000) scale(0.100000,-0.100000)"
fill="#000000" stroke="none">
<path d="M0 1050 l0 -1050 1050 0 1050 0 0 1050 0 1050 -1050 0 -1050 0 0
-1050z m1252 590 c122 -32 297 -178 355 -295 37 -73 77 -191 69 -204 -3 -5
-16 -11 -28 -13 -13 -3 -165 -49 -338 -102 l-314 -96 -318 0 c-235 0 -319 3
-324 12 -16 26 -7 192 15 260 60 188 240 359 449 425 126 40 310 45 434 13z
m463 -690 l30 -20 -97 0 c-54 0 -98 2 -98 5 0 12 66 34 100 35 19 0 49 -9 65
-20z m-1035 -139 c0 -5 24 -25 53 -44 134 -92 302 -87 532 14 l90 39 203 0
c113 0 202 -4 202 -9 0 -21 -113 -110 -206 -162 -383 -217 -687 -254 -922
-112 -100 60 -191 160 -228 248 l-14 35 145 0 c80 0 145 -4 145 -9z"/>
<path d="M980 1414 c-140 -27 -257 -97 -315 -189 -32 -50 -70 -144 -61 -152 2
-3 169 46 370 108 l365 114 -22 23 c-12 13 -54 39 -93 58 -57 29 -84 36 -145
39 -41 2 -85 1 -99 -1z"/>
</g>
</svg>
