<?xml version="1.0" encoding="utf-8"?>
<!-- Generator: Adobe Illustrator 16.0.3, SVG Export Plug-In . SVG Version: 6.00 Build 0)  -->
<!DOCTYPE svg PUBLIC "-//W3C//DTD SVG 1.1//EN" "http://www.w3.org/Graphics/SVG/1.1/DTD/svg11.dtd">
<svg version="1.1" id="Layer_1" xmlns="http://www.w3.org/2000/svg" xmlns:xlink="http://www.w3.org/1999/xlink" x="0px" y="0px"
	 width="181.362px" height="52.095px" viewBox="10.818 12.907 181.362 52.095"
	 enable-background="new 10.818 12.907 181.362 52.095" xml:space="preserve">
<g id="pado_1_" enable-background="new    ">
	<g id="pado">
		<g>
			<path d="M66.275,23.84c-1.631,0-3.223,0.242-4.773,0.725C59.951,25.048,58.45,25.783,57,26.77v-2.114h-7.251
				c-1.491,0-2.553,0.287-3.188,0.861c-0.635,0.573-0.952,1.313-0.952,2.219c0,0.927,0.317,1.677,0.952,2.25
				c0.634,0.574,1.697,0.861,3.188,0.861h1.058v27.965h-1.058c-1.471,0-2.528,0.287-3.172,0.858
				c-0.645,0.574-0.967,1.324-0.967,2.25c0,0.906,0.317,1.646,0.952,2.222c0.634,0.572,1.697,0.859,3.188,0.859h10.968
				c1.49,0,2.553-0.287,3.188-0.859c0.634-0.574,0.952-1.313,0.952-2.222c0-0.926-0.317-1.676-0.952-2.25
				c-0.634-0.571-1.697-0.858-3.188-0.858H57V48.664c1.53,0.927,3.071,1.621,4.623,2.084c1.551,0.464,3.122,0.693,4.713,0.693
				c3.686,0,7-1.105,9.94-3.32c3.525-2.658,5.288-6.03,5.288-10.117c0-3.704-1.491-6.991-4.472-9.86
				C74.111,25.274,70.505,23.84,66.275,23.84z M72.741,42.928c-1.752,1.549-3.938,2.324-6.556,2.324
				c-2.599,0-4.779-0.779-6.542-2.341C57.881,41.352,57,39.745,57,38.096c0-1.471,0.614-3,1.843-4.592
				c1.813-2.314,4.26-3.473,7.342-3.473c1.913,0,3.58,0.448,5,1.344s2.472,2.014,3.157,3.353c0.685,1.339,1.027,2.441,1.027,3.307
				C75.37,39.745,74.494,41.376,72.741,42.928z M114.648,45.887h-1.06V33.142c0-2.879-1.063-5.149-3.188-6.811
				c-2.127-1.66-5.11-2.491-8.959-2.491c-1.289,0-2.729,0.126-4.319,0.378c-1.591,0.252-3.152,0.589-4.683,1.012
				c-1.148,0.322-1.903,0.599-2.266,0.83c-0.362,0.231-0.645,0.539-0.846,0.921c-0.202,0.383-0.302,0.836-0.302,1.359
				c0,0.927,0.287,1.687,0.861,2.28c0.574,0.594,1.274,0.891,2.1,0.891c0.604,0,1.45-0.131,2.538-0.393
				c2.92-0.725,5.296-1.087,7.128-1.087c2.236,0,3.754,0.292,4.549,0.876c0.796,0.584,1.191,1.339,1.191,2.265v1.479
				c-2.457-0.402-4.621-0.604-6.496-0.604c-4.671,0-8.333,1.112-10.98,3.337c-2.649,2.226-3.973,4.636-3.973,7.231
				c0,2.136,1.037,4.084,3.112,5.845c2.074,1.763,4.774,2.644,8.097,2.644c1.531,0,3.232-0.207,5.106-0.619
				c1.873-0.412,3.585-1.03,5.137-1.856v1.45h7.252c1.49,0,2.554-0.287,3.188-0.861c0.637-0.572,0.951-1.313,0.951-2.22
				c0-0.927-0.314-1.677-0.951-2.249C117.201,46.173,116.139,45.887,114.648,45.887z M107.396,43.65
				c-1.473,1.008-3.146,1.803-5.03,2.387s-3.57,0.876-5.061,0.876c-1.752,0-3.132-0.333-4.14-0.997
				c-0.544-0.361-0.815-0.835-0.815-1.419c0-0.806,0.563-1.601,1.692-2.386c1.813-1.229,3.978-1.844,6.497-1.844
				c2.094,0,4.381,0.241,6.857,0.726V43.65z M154.229,45.887h-1.058v-32.98h-7.251c-1.49,0-2.553,0.287-3.188,0.861
				c-0.635,0.573-0.951,1.324-0.951,2.25c0,0.905,0.316,1.646,0.951,2.22c0.635,0.573,1.697,0.86,3.188,0.86h1.059V26.8
				c-1.512-0.986-3.043-1.727-4.594-2.22c-1.551-0.493-3.133-0.74-4.744-0.74c-4.289,0-7.926,1.48-10.906,4.439
				c-2.979,2.96-4.473,6.533-4.473,10.721c0,4.007,1.422,7.354,4.262,10.042s6.586,4.03,11.238,4.03
				c1.652,0,3.248-0.211,4.789-0.633c1.541-0.424,3.018-1.047,4.428-1.873v1.511h7.25c1.492,0,2.556-0.287,3.188-0.861
				c0.636-0.573,0.952-1.313,0.952-2.22c0-0.926-0.322-1.676-0.967-2.249C156.757,46.173,155.699,45.887,154.229,45.887z
				 M144.529,44.693c-1.631,1.459-3.907,2.188-6.828,2.188c-2.939,0-5.217-0.729-6.828-2.188c-1.611-1.461-2.417-3.327-2.417-5.604
				c0-2.496,0.896-4.63,2.688-6.402c1.793-1.771,3.979-2.657,6.557-2.657c2.6,0,4.795,0.886,6.588,2.657
				c1.792,1.772,2.688,3.937,2.688,6.495C146.979,41.396,146.162,43.232,144.529,44.693z M190.184,31.586
				c-1.328-2.365-3.299-4.247-5.906-5.647c-2.607-1.398-5.321-2.099-8.144-2.099c-2.8,0-5.483,0.685-8.052,2.054
				s-4.537,3.246-5.907,5.633c-1.37,2.386-2.054,4.816-2.054,7.293c0,2.437,0.674,4.771,2.023,7.006
				c1.35,2.234,3.313,4.002,5.893,5.301c2.578,1.298,5.275,1.947,8.097,1.947c2.841,0,5.563-0.659,8.173-1.979
				c2.609-1.318,4.572-3.092,5.895-5.314c1.316-2.225,1.979-4.524,1.979-6.9C192.178,36.384,191.514,33.952,190.184,31.586z
				 M183.145,44.361c-1.895,1.681-4.229,2.521-7.011,2.521c-2.76,0-5.086-0.841-6.979-2.521c-1.893-1.682-2.84-3.488-2.84-5.422
				c0-2.355,0.938-4.429,2.812-6.221c1.874-1.792,4.21-2.688,7.011-2.688c3.184,0,5.752,1.128,7.704,3.382
				c1.431,1.672,2.146,3.504,2.146,5.497C185.984,40.863,185.037,42.68,183.145,44.361z"/>
		</g>
	</g>
</g>
<g id="e_1_" enable-background="new    ">
	<g id="e">
		<g>
			<path d="M45,43.021c-0.272-0.842-0.767-1.455-1.483-1.836c-0.716-0.383-1.466-0.445-2.251-0.191
				c-0.574,0.188-1.545,0.713-2.915,1.58c-3.314,2.111-6.062,3.521-8.244,4.229c-2.661,0.861-4.923,1.077-6.787,0.645
				c-1.864-0.434-3.35-1.314-4.459-2.648l24.147-7.828L42.2,34.469c-0.62-1.915-1.472-3.501-2.556-4.759
				c-1.576-1.796-3.282-3.179-5.119-4.149c-1.292-0.661-3.076-1.088-5.349-1.282c-2.273-0.194-4.606,0.096-6.999,0.872
				c-3.981,1.29-7.079,3.729-9.291,7.313c-2.213,3.586-2.65,7.446-1.311,11.583c1.259,3.889,3.731,6.706,7.417,8.453
				c3.685,1.747,7.882,1.857,12.591,0.331c2.737-0.888,5.485-2.134,8.245-3.735c2.759-1.604,4.407-2.884,4.943-3.841
				C45.172,44.531,45.248,43.787,45,43.021z M19.465,33.918c1.185-1.305,2.772-2.279,4.763-2.925
				c2.01-0.651,3.877-0.797,5.602-0.435c1.724,0.361,3.309,1.239,4.755,2.633L17.128,38.85C17.5,36.867,18.279,35.223,19.465,33.918
				z"/>
		</g>
	</g>
</g>
</svg>
