<?xml version="1.0" encoding="utf-8"?>
<!-- Generator: Adobe Illustrator 15.1.0, SVG Export Plug-In . SVG Version: 6.00 Build 0)  -->
<!DOCTYPE svg PUBLIC "-//W3C//DTD SVG 1.1//EN" "http://www.w3.org/Graphics/SVG/1.1/DTD/svg11.dtd">
<svg version="1.1" id="Layer_1" xmlns="http://www.w3.org/2000/svg" xmlns:xlink="http://www.w3.org/1999/xlink" x="0px" y="0px"
	 width="512px" height="512px" viewBox="0 0 512 512" enable-background="new 0 0 512 512" xml:space="preserve">
<g id="Layer_3">
	<path fill="#FFFFFF" d="M471.496,389.184c-0.001-0.002-0.003-0.004-0.004-0.004L338.315,256l133.177-133.179
		c0.001-0.001,0.003-0.002,0.004-0.004c1.435-1.434,2.471-3.109,3.136-4.894c1.819-4.877,0.782-10.582-3.14-14.504L408.58,40.508
		c-3.921-3.921-9.625-4.958-14.502-3.138c-1.784,0.664-3.46,1.701-4.896,3.133c0,0.001-0.002,0.002-0.003,0.004L256,173.687
		L122.823,40.508c-0.001-0.001-0.002-0.002-0.004-0.004c-1.434-1.433-3.11-2.469-4.893-3.134
		c-4.879-1.821-10.582-0.782-14.503,3.138L40.51,103.421c-3.921,3.922-4.959,9.625-3.138,14.503c0.665,1.783,1.701,3.46,3.134,4.894
		c0.002,0.001,0.003,0.003,0.004,0.004L173.688,256L40.509,389.18c0,0.002-0.002,0.004-0.003,0.004
		c-1.433,1.437-2.469,3.11-3.135,4.896c-1.822,4.876-0.783,10.581,3.138,14.503l62.913,62.911c3.922,3.923,9.625,4.959,14.503,3.14
		c1.783-0.666,3.459-1.702,4.894-3.136c0.001-0.001,0.002-0.002,0.004-0.004l133.178-133.179L389.18,471.492
		c0.002,0.001,0.004,0.003,0.006,0.003c1.436,1.435,3.109,2.471,4.895,3.137c4.877,1.819,10.582,0.783,14.502-3.14l62.911-62.912
		c3.923-3.922,4.961-9.627,3.141-14.504C473.967,392.294,472.931,390.618,471.496,389.184z"/>
</g>
</svg>
